<?xml version="1.0" encoding="UTF-8" standalone="no"?>
<!-- Uploaded to: SVG Repo, www.svgrepo.com, Generator: SVG Repo Mixer Tools -->

<svg
   width="128"
   height="128"
   viewBox="0 0 81.92 81.92"
   version="1.1"
   id="svg1"
   sodipodi:docname="fox-tail-svgrepo-com.svg"
   inkscape:version="1.4.4 (dcaf3e7, 2026-05-05)"
   xmlns:inkscape="http://www.inkscape.org/namespaces/inkscape"
   xmlns:sodipodi="http://sodipodi.sourceforge.net/DTD/sodipodi-0.dtd"
   xmlns:xlink="http://www.w3.org/1999/xlink"
   xmlns="http://www.w3.org/2000/svg"
   xmlns:svg="http://www.w3.org/2000/svg">
  <defs
     id="defs1">
    <linearGradient
       id="linearGradient2"
       inkscape:collect="always">
      <stop
         style="stop-color:#222222;stop-opacity:1;"
         offset="0"
         id="stop2" />
      <stop
         style="stop-color:#ff4444;stop-opacity:1;"
         offset="1"
         id="stop3" />
    </linearGradient>
    <linearGradient
       inkscape:collect="always"
       xlink:href="#linearGradient2"
       id="linearGradient3"
       x1="19.529846"
       y1="255.99425"
       x2="492.46899"
       y2="255.99425"
       gradientUnits="userSpaceOnUse" />
  </defs>
  <sodipodi:namedview
     id="namedview1"
     pagecolor="#ffffff"
     bordercolor="#000000"
     borderopacity="0.25"
     inkscape:showpageshadow="2"
     inkscape:pageopacity="0.0"
     inkscape:pagecheckerboard="0"
     inkscape:deskcolor="#d1d1d1"
     inkscape:zoom="5.7063517"
     inkscape:cx="57.655051"
     inkscape:cy="65.278135"
     inkscape:window-width="1920"
     inkscape:window-height="1009"
     inkscape:window-x="1912"
     inkscape:window-y="-8"
     inkscape:window-maximized="1"
     inkscape:current-layer="svg1" />
  <g
     id="g4"
     transform="matrix(0.17321467,0,0,0.17321467,-3.3828568,-3.8168122)">
    <path
       style="fill:#ff980e;fill-opacity:1;stroke:#ebfaff;stroke-width:0.192"
       d="M 26.012392,77.402726 91.995046,36.798017 H 177.6456 l 79.30607,20.302355 53.92813,52.024778 29.81909,88.82281 5.07558,81.84386 -1.2689,32.35688 -14.59231,38.70136 -93.89839,47.58364 H 152.26766 L 109.12515,305.80421 122.44858,213.80917 156.07435,150.36431 139.57869,102.78067 90.726144,79.940518 38.701363,98.339526 Z"
       id="path4" />
    <path
       fill="#000000"
       d="m 144.734,22.04 c -5.61,-0.035 -11.163,0.12 -16.634,0.456 -43.77,2.7 -82.904,17.003 -103.862,44.996 -7.506,10.027 -5.682,23.91 2.95,31.42 8.635,7.51 23.004,8.053 36.234,-0.52 22.84,-14.805 47.933,-9.572 64.27,6.172 16.34,15.745 23.736,41.453 7.54,71.145 -19.17,35.143 -44.136074,77.11954 -31.56607,137.49254 12.57,60.374 64.38807,138.79346 151.14807,164.80546 33.476,10.036 78.825,16.75 121.645,7.666 44.507,-8.788 95.85,-34.758 106.892,-63.11 -9.25,8.885 -19.44,15.14 -30.202,19.79 18.306,-20.92 31.735,-49.732 36.79,-88.174 l 2.53,-19.24 -16.322,10.496 c -10.503,6.755 -20.585,13.403 -30.093,18.396 2.638,-5.872 5.038,-13.22 7.73,-22.777 -11.097,15.19 -23.73,25.355 -38.598,31.472 -9.234,-0.503 -29.77307,-23.90046 -40.63007,-35.13046 -11.358,-11.747 -18.12,-32.095 -22.463,-57.666 -4.344,-25.572 4.96007,-36.89354 0.75207,-67.84354 C 344.425,149.984 326.933,84.013 263.105,50.851 226.15,31.651 184.013,22.274 144.733,22.038 Z m -0.123,18.01 c 36.462,0.255 76.11,9.065 110.197,26.774 56.393,29.3 71.994,87.14 80.203,147.488 4.104,30.175 -5.23407,41.52054 -0.66207,68.43154 1.316,7.753 2.835,15.242 4.693,22.385 -15.448,0.04 -27.254,-8.307 -41.704,-24.717 7.385,30.41 11.99,36.534 25.705,55.55 -28.22,-8.235 -60.64,-34.74 -80.95,-64.063 -3.274,40.047 20.223,71.574 33.275,83.93 -25.176,-14.196 -60.713,-41.536 -84.623,-88.655 -1.016,41.426 11.93,87.732 36.45,116.465 -34.515,-11.536 -64.97,-99.472 -85.42,-127.633 -13.04,33.217 -2.948,89.085 16.072,130.122 -19.628,-22.838 -30.887,-49.375 -36.555,-76.596 -11.524,-55.342 13.17007,-94.81354 29.74507,-125.20454 19.55,-35.842 10.915,-71.75 -10.85,-92.726 -21.768,-20.976 -56.854,-27.564 -86.554,-8.315 -8.56,5.55 -12.688,3.732 -14.626,2.045 -1.94,-1.687 -2.76,-3.84 -0.356,-7.053 16.106,-21.514 50.135,-35.324 90.56,-37.817 5.052,-0.312 10.195,-0.45 15.403,-0.414 z"
       id="path1"
       style="fill:url(#linearGradient3);fill-opacity:1"
       sodipodi:nodetypes="ccccccccccccsccccccccccccccccccccccccccccccccc" />
    <path
       style="fill:#000000;fill-opacity:1;stroke:#ebfaff;stroke-width:0.192"
       d="M 20.302355,213.80917 67.885997,171.93556"
       id="path3" />
  </g>
</svg>
